<?xml version="1.0" encoding="iso-8859-1"?>
<!-- Generator: Adobe Illustrator 25.0.0, SVG Export Plug-In . SVG Version: 6.00 Build 0)  -->
<svg version="1.1" id="&#x5716;&#x5C64;_1" xmlns="http://www.w3.org/2000/svg" xmlns:xlink="http://www.w3.org/1999/xlink" x="0px"
	 y="0px" viewBox="0 0 600 600" style="enable-background:new 0 0 600 600;" xml:space="preserve">
<g>
	<g>
		<rect x="417.081" y="234" width="25" height="188"/>
	</g>
	<g>
		<rect x="281.081" y="209.767" width="200" height="25"/>
	</g>
	<g>
		<rect x="281.081" y="284.767" width="100" height="25"/>
	</g>
	<g>
		<rect x="181.081" y="358.767" width="200" height="25"/>
	</g>
	<g>
		<rect x="220.081" y="171.1" width="25" height="188"/>
	</g>
	<g>
		<g>
			
				<rect x="436.87" y="352.04" transform="matrix(0.5735 -0.8192 0.8192 0.5735 -73.3047 588.2688)" width="182.963" height="24.999"/>
		</g>
		<g>
			
				<rect x="515.843" y="137.513" transform="matrix(0.8192 -0.5735 0.5735 0.8192 -35.7999 344.4392)" width="24.999" height="182.963"/>
		</g>
	</g>
	<g>
		<g>
			
				<rect x="126.377" y="273.159" transform="matrix(0.8192 -0.5735 0.5735 0.8192 -184.026 145.5898)" width="24.999" height="182.963"/>
		</g>
		<g>
			
				<rect x="47.519" y="216.591" transform="matrix(0.5735 -0.8192 0.8192 0.5735 -128.3881 211.5609)" width="182.963" height="24.999"/>
		</g>
	</g>
	<polyline style="stroke:#000000;stroke-width:0.25;stroke-miterlimit:10;" points="366.587,162.665 408.195,48.349 431.688,56.899 
		390.08,171.215 	"/>
	<g>
		<g>
			<rect x="181.081" y="146.767" width="100" height="25"/>
		</g>
		<g>
			<polygon points="281.031,171.767 246.031,171.767 255.13,146.767 290.13,146.767 			"/>
		</g>
	</g>
	<g>
		<g>
			<rect x="386.081" y="421.767" width="100" height="25"/>
		</g>
		<g>
			<polygon points="386.155,421.767 421.155,421.767 412.056,446.767 377.056,446.767 			"/>
		</g>
	</g>
	<g>
		<g>
			<rect x="181.081" y="421.767" width="91.2" height="25"/>
		</g>
		<g>
			<polygon points="227.351,545.177 272.281,421.767 298.881,421.767 253.966,545.185 			"/>
		</g>
	</g>
	<g>
		<g>
			<rect x="389.568" y="146.859" width="96.513" height="25"/>
		</g>
		<g>
			<polygon points="434.498,48.449 389.568,171.859 362.968,171.859 407.883,48.441 			"/>
		</g>
	</g>
	<g>
		<path d="M68.803,83.621H48.659l-15.022,41.273h-9.141l15.022-41.273h-20.18l3.327-9.141H72.13L68.803,83.621z"/>
		<path d="M97.385,112.309c-0.46,1.266-1.18,2.631-2.158,4.096c-0.979,1.465-2.194,2.824-3.646,4.078
			c-1.453,1.254-3.135,2.302-5.048,3.146c-1.912,0.843-4.018,1.266-6.314,1.266H63.73c-1.266,0-2.55-0.222-3.853-0.668
			c-1.303-0.445-2.399-1.166-3.291-2.162c-0.892-0.996-1.467-2.297-1.726-3.902c-0.259-1.606,0.029-3.557,0.865-5.854
			c0.461-1.266,1.183-2.637,2.165-4.113c0.983-1.477,2.2-2.842,3.653-4.097c1.452-1.253,3.135-2.302,5.047-3.146
			c1.913-0.844,4.018-1.266,6.314-1.266h16.488l-3.173,8.719H69.732c-1.242,0-2.342,0.382-3.299,1.144
			c-0.957,0.762-1.64,1.705-2.049,2.829c-0.435,1.196-0.382,2.127,0.161,2.795c0.542,0.668,1.352,1.002,2.43,1.002h16.418
			c1.242,0,2.339-0.375,3.292-1.125c0.953-0.75,1.634-1.688,2.043-2.813l4.645-12.761c0.435-1.196,0.411-2.145-0.071-2.849
			c-0.482-0.703-1.286-1.055-2.411-1.055H70.816l3.161-8.684h20.074c1.266,0,2.55,0.223,3.853,0.668
			c1.302,0.446,2.399,1.167,3.291,2.162c0.891,0.997,1.466,2.298,1.726,3.903c0.259,1.606-0.029,3.557-0.865,5.854L97.385,112.309z"
			/>
		<path d="M109.89,124.895h-9.141l13.833-38.004h9.141L109.89,124.895z M126.563,79.086h-9.141l3.007-8.262h9.141L126.563,79.086z"
			/>
		<path d="M155.453,124.895h-24.785c-1.266,0-2.567-0.222-3.905-0.668c-1.338-0.445-2.46-1.178-3.366-2.197s-1.49-2.344-1.753-3.973
			c-0.263-1.628,0.037-3.626,0.898-5.994l4.504-12.375c0.315-0.866,0.748-1.78,1.297-2.742c0.549-0.96,1.208-1.916,1.975-2.865
			c0.768-0.949,1.643-1.857,2.626-2.725s2.069-1.629,3.257-2.285c1.188-0.656,2.476-1.184,3.863-1.582
			c1.387-0.398,2.866-0.598,4.437-0.598h24.785l-3.327,9.141h-24.785c-1.195,0-2.215,0.305-3.058,0.914
			c-0.843,0.61-1.495,1.547-1.955,2.813l-4.479,12.305c-0.435,1.195-0.451,2.109-0.049,2.742s1.213,0.949,2.432,0.949h24.715
			L155.453,124.895z"/>
		<path d="M172.292,124.895h-9.141l19.68-54.07h9.141L172.292,124.895z M205.269,124.895h-9.141l9.175-25.208
			c0.435-1.195,0.461-2.104,0.078-2.725c-0.384-0.62-1.185-0.932-2.403-0.932H186.49l3.327-9.141h16.488
			c0.867,0,1.745,0.1,2.633,0.299c0.889,0.199,1.73,0.51,2.526,0.931c0.796,0.422,1.506,0.967,2.13,1.635s1.091,1.477,1.402,2.425
			c0.311,0.95,0.438,2.046,0.385,3.287c-0.054,1.243-0.367,2.649-0.938,4.219L205.269,124.895z"/>
		<path d="M256.868,120.289c-0.239,0.657-0.578,1.267-1.017,1.828c-0.439,0.562-0.939,1.05-1.498,1.459
			c-0.56,0.411-1.158,0.733-1.794,0.967c-0.636,0.234-1.271,0.352-1.903,0.352h-20.672c-1.125,0-2.279-0.128-3.463-0.387
			c-1.183-0.258-2.292-0.673-3.325-1.248c-1.033-0.575-1.97-1.301-2.81-2.181c-0.84-0.878-1.466-1.944-1.876-3.199
			c-0.411-1.254-0.582-2.701-0.512-4.342c0.07-1.641,0.48-3.493,1.231-5.555l7.678-21.094h9.141l-7.678,21.094
			c-0.435,1.195-0.62,2.268-0.556,3.217c0.064,0.949,0.325,1.764,0.78,2.443c0.456,0.68,1.092,1.201,1.91,1.564
			c0.816,0.364,1.776,0.545,2.877,0.545h15.996l10.506-28.863h9.141L256.868,120.289z"/>
		<path d="M305.887,124.895h-9.141l7.678-21.094c0.436-1.196,0.62-2.268,0.556-3.217c-0.064-0.949-0.325-1.763-0.781-2.443
			c-0.455-0.68-1.092-1.201-1.908-1.564c-0.817-0.363-1.777-0.545-2.878-0.545h-15.996l-10.506,28.864h-9.141l12.182-33.469
			c0.23-0.632,0.563-1.224,0.998-1.775s0.938-1.031,1.509-1.441c0.571-0.41,1.181-0.732,1.829-0.966
			c0.648-0.234,1.289-0.353,1.921-0.353h20.602c1.148,0,2.313,0.129,3.497,0.387s2.298,0.673,3.343,1.248
			c1.045,0.574,1.977,1.3,2.793,2.179c0.816,0.879,1.437,1.946,1.859,3.199c0.422,1.254,0.593,2.702,0.511,4.342
			c-0.081,1.641-0.498,3.493-1.248,5.555L305.887,124.895z"/>
		<path d="M353.916,128.55c-0.572,1.57-1.285,2.982-2.14,4.237c-0.855,1.254-1.783,2.355-2.785,3.305
			c-1.002,0.949-2.058,1.757-3.168,2.425s-2.217,1.213-3.32,1.635c-1.103,0.421-2.176,0.732-3.222,0.932
			c-1.045,0.199-2.001,0.299-2.868,0.299h-16.488l3.327-9.141h16.488c1.242,0,2.283-0.316,3.123-0.95
			c0.839-0.632,1.477-1.546,1.912-2.742l10.505-28.863c0.435-1.195,0.461-2.104,0.078-2.725c-0.384-0.62-1.196-0.932-2.438-0.932
			h-16.488c-1.125,0-2.142,0.346-3.05,1.037c-0.908,0.692-1.554,1.564-1.938,2.619l-4.504,12.375
			c-0.436,1.195-0.451,2.109-0.049,2.742s1.213,0.949,2.432,0.949h16.418l-3.327,9.141h-16.488c-0.867,0-1.745-0.099-2.633-0.299
			c-0.889-0.198-1.73-0.509-2.526-0.932c-0.796-0.422-1.506-0.966-2.13-1.634s-1.092-1.477-1.402-2.426
			c-0.311-0.949-0.438-2.05-0.379-3.304c0.058-1.254,0.373-2.666,0.944-4.236l4.504-12.375c0.315-0.866,0.748-1.78,1.297-2.742
			c0.549-0.96,1.207-1.916,1.975-2.865s1.643-1.857,2.626-2.725c0.984-0.867,2.069-1.629,3.258-2.285
			c1.188-0.656,2.476-1.184,3.863-1.582c1.387-0.398,2.866-0.598,4.437-0.598h16.488c0.867,0,1.75,0.1,2.65,0.299
			c0.9,0.199,1.748,0.51,2.544,0.931c0.796,0.422,1.506,0.967,2.13,1.635s1.091,1.477,1.402,2.425
			c0.311,0.95,0.438,2.046,0.385,3.287c-0.054,1.243-0.366,2.649-0.938,4.219L353.916,128.55z"/>
	</g>
	<g>
		<path d="M351.365,480.835h-20.145l-15.022,41.273h-9.141l15.022-41.273H301.9l3.327-9.141h49.465L351.365,480.835z"/>
		<path d="M388.168,496.69c-0.46,1.266-1.18,2.631-2.158,4.096s-2.194,2.824-3.646,4.078s-3.135,2.303-5.048,3.146
			c-1.912,0.844-4.017,1.266-6.313,1.266h-16.488l3.16-8.684h16.488c1.242,0,2.342-0.381,3.299-1.143s1.641-1.705,2.05-2.83
			c0.435-1.196,0.396-2.133-0.119-2.812s-1.311-1.02-2.389-1.02h-16.488c-1.242,0-2.342,0.382-3.299,1.143
			c-0.957,0.762-1.64,1.705-2.049,2.83l-4.646,12.762c-0.443,1.219-0.408,2.168,0.106,2.848c0.514,0.68,1.334,1.02,2.459,1.02
			h16.418l-3.174,8.719h-16.488c-1.266,0-2.55-0.223-3.853-0.668s-2.399-1.166-3.291-2.162s-1.467-2.297-1.727-3.902
			c-0.259-1.605,0.029-3.557,0.865-5.854l4.67-12.832c0.461-1.267,1.181-2.631,2.159-4.097c0.979-1.463,2.194-2.823,3.646-4.078
			c1.452-1.253,3.135-2.302,5.048-3.146c1.912-0.844,4.018-1.267,6.314-1.267h16.488c1.266,0,2.55,0.224,3.853,0.669
			c1.302,0.445,2.399,1.166,3.291,2.161c0.891,0.997,1.466,2.298,1.726,3.903S389.005,494.394,388.168,496.69z"/>
		<path d="M421.878,522.108h-24.785c-1.266,0-2.567-0.223-3.905-0.668s-2.46-1.178-3.366-2.197s-1.49-2.344-1.753-3.973
			s0.036-3.626,0.898-5.994l4.504-12.376c0.315-0.866,0.748-1.78,1.297-2.741s1.207-1.916,1.975-2.865s1.643-1.857,2.626-2.725
			c0.984-0.867,2.07-1.629,3.258-2.285c1.188-0.656,2.476-1.184,3.863-1.582c1.387-0.398,2.866-0.599,4.437-0.599h24.785
			l-3.327,9.142h-24.785c-1.195,0-2.215,0.305-3.058,0.914c-0.843,0.61-1.495,1.547-1.955,2.812l-4.479,12.305
			c-0.435,1.195-0.451,2.109-0.049,2.742s1.213,0.949,2.432,0.949h24.715L421.878,522.108z"/>
		<path d="M438.718,522.108h-9.141l19.68-54.07h9.141L438.718,522.108z M471.694,522.108h-9.141l9.175-25.208
			c0.435-1.194,0.461-2.103,0.078-2.725c-0.384-0.62-1.185-0.931-2.403-0.931h-16.488l3.327-9.142h16.488
			c0.867,0,1.745,0.101,2.633,0.3c0.889,0.199,1.73,0.51,2.526,0.932s1.506,0.967,2.13,1.635s1.091,1.477,1.402,2.426
			c0.311,0.949,0.438,2.045,0.386,3.287c-0.055,1.242-0.367,2.649-0.938,4.218L471.694,522.108z"/>
	</g>
</g>
<g>
	<line style="fill:#FFFFFF;" x1="135.5" y1="212.5" x2="164.5" y2="212.5"/>
	<polygon style="fill:#FFFFFF;" points="164.1,215 133.6,215 137.1,210 152.553,210 167.6,210 	"/>
</g>
<polygon style="fill:#FFFFFF;" points="156.4,226 125.9,226 129.4,221 146.411,221 159.9,221 "/>
<path style="fill:#FFFFFF;" d="M194.724,261"/>
<polygon style="fill:#FFFFFF;" points="148.7,237 118.205,237 121.7,232 138.516,232 152.2,232 "/>
<path style="fill:none;stroke:#FF0000;stroke-miterlimit:10;" d="M148.5,221"/>
<path style="fill:none;stroke:#FF0000;stroke-miterlimit:10;" d="M148.5,214.5"/>
<path style="fill:none;stroke:#FF0000;stroke-miterlimit:10;" d="M148.143,232.336"/>
<path style="fill:none;stroke:#FF0000;stroke-miterlimit:10;" d="M148.143,225.836"/>
<g>
	<line style="fill:#FFFFFF;" x1="517.398" y1="358.6" x2="546.398" y2="358.6"/>
	<polygon style="fill:#FFFFFF;" points="545.997,361.1 515.497,361.1 518.997,356.1 534.45,356.1 549.497,356.1 	"/>
</g>
<polygon style="fill:#FFFFFF;" points="538.297,372.1 507.797,372.1 511.297,367.1 528.308,367.1 541.797,367.1 "/>
<polygon style="fill:#FFFFFF;" points="530.597,383.1 500.103,383.1 503.598,378.1 520.413,378.1 534.097,378.1 "/>
<line style="fill:none;" x1="373" y1="384" x2="514" y2="384"/>
</svg>
